<svg width="66" height="29" viewBox="0 0 66 29" fill="none" xmlns="http://www.w3.org/2000/svg">
<path d="M65.2041 9.13867C65.2041 9.13867 65.9384 9.42615 66.0002 10.0285V16.4762L65.1835 17.366L63.7148 15.5111L65.2041 9.13867Z" fill="#94ADD6"/>
<path d="M65 17.2852H1V20.2852H65V17.2852Z" fill="#5C5963"/>
<path d="M65.0526 19.2539H1.07031V20.1027H65.0526V19.2539Z" fill="#413F47"/>
<path d="M1.97621 16.3594H1.07031V22.2116H1.97621V16.3594Z" fill="#5C5963"/>
<path d="M62.5823 2.10156H51.2998V15.0997L56.4401 15.1065C59.8097 15.1613 60.8666 17.5912 60.8666 17.5912H65.1971V9.13794L62.5823 2.10156Z" fill="#E5EFFF"/>
<path d="M56.2959 7.43276H63.8656L62.1225 2.75781H56.2959V7.43276Z" fill="#C1D9FF"/>
<path d="M51.2998 2.11502H63.749C63.2686 0.335391 61.3745 0 61.3745 0H51.2998V2.11502Z" fill="#C1D9FF"/>
<path d="M58.9616 24.5386C60.8833 22.622 60.8833 19.5147 58.9616 17.5981C57.04 15.6816 53.9245 15.6816 52.0028 17.5981C50.0812 19.5147 50.0812 22.622 52.0028 24.5386C53.9245 26.4551 57.04 26.4551 58.9616 24.5386Z" fill="#312E37"/>
<path d="M55.4862 17.8652C53.7087 17.8652 52.2744 19.3026 52.2744 21.0686C52.2744 22.8414 53.7156 24.2719 55.4862 24.2719C57.2637 24.2719 58.698 22.8345 58.698 21.0686C58.698 19.3026 57.2568 17.8652 55.4862 17.8652ZM55.4862 23.6422C54.0656 23.6422 52.9127 22.4923 52.9127 21.0754C52.9127 19.6586 54.0656 18.5086 55.4862 18.5086C56.9068 18.5086 58.0598 19.6586 58.0598 21.0754C58.0598 22.4923 56.9068 23.6422 55.4862 23.6422Z" fill="#5C5963"/>
<path d="M55.4857 23.6355C56.907 23.6355 58.0592 22.4863 58.0592 21.0687C58.0592 19.6511 56.907 18.502 55.4857 18.502C54.0643 18.502 52.9121 19.6511 52.9121 21.0687C52.9121 22.4863 54.0643 23.6355 55.4857 23.6355Z" fill="#5C5963"/>
<path d="M56.2446 21.8282C56.6654 21.4086 56.6654 20.7282 56.2446 20.3085C55.8238 19.8888 55.1416 19.8888 54.7209 20.3085C54.3001 20.7282 54.3001 21.4086 54.7209 21.8282C55.1416 22.2479 55.8238 22.2479 56.2446 21.8282Z" fill="white"/>
<path d="M25.5349 24.5405C27.4565 22.624 27.4565 19.5166 25.5349 17.6001C23.6133 15.6836 20.4977 15.6836 18.5761 17.6001C16.6545 19.5166 16.6545 22.624 18.5761 24.5405C20.4977 26.4571 23.6133 26.4571 25.5349 24.5405Z" fill="#312E37"/>
<path d="M22.0575 17.8652C20.28 17.8652 18.8457 19.3026 18.8457 21.0686C18.8457 22.8414 20.2869 24.2719 22.0575 24.2719C23.835 24.2719 25.2693 22.8345 25.2693 21.0686C25.2762 19.3026 23.835 17.8652 22.0575 17.8652ZM22.0575 23.6422C20.6369 23.6422 19.4839 22.4923 19.4839 21.0754C19.4839 19.6586 20.6369 18.5086 22.0575 18.5086C23.4781 18.5086 24.6311 19.6586 24.6311 21.0754C24.6379 22.4923 23.485 23.6422 22.0575 23.6422Z" fill="#5C5963"/>
<path d="M22.057 23.6355C23.4783 23.6355 24.6305 22.4863 24.6305 21.0687C24.6305 19.6511 23.4783 18.502 22.057 18.502C20.6356 18.502 19.4834 19.6511 19.4834 21.0687C19.4834 22.4863 20.6356 23.6355 22.057 23.6355Z" fill="#5C5963"/>
<path d="M22.8179 21.8302C23.2386 21.4105 23.2386 20.7301 22.8179 20.3104C22.3971 19.8908 21.7149 19.8908 21.2941 20.3104C20.8733 20.7301 20.8733 21.4105 21.2941 21.8302C21.7149 22.2498 22.3971 22.2498 22.8179 21.8302Z" fill="white"/>
<path d="M12.6394 24.5405C14.561 22.624 14.561 19.5166 12.6394 17.6001C10.7177 15.6836 7.60219 15.6836 5.68057 17.6001C3.75895 19.5166 3.75895 22.624 5.68057 24.5405C7.60219 26.4571 10.7177 26.4571 12.6394 24.5405Z" fill="#312E37"/>
<path d="M9.16201 17.8652C7.38453 17.8652 5.9502 19.3026 5.9502 21.0686C5.9502 22.8414 7.39139 24.2719 9.16201 24.2719C10.9326 24.2719 12.3738 22.8345 12.3738 21.0686C12.3807 19.3026 10.9395 17.8652 9.16201 17.8652ZM9.16201 23.6422C7.7414 23.6422 6.58844 22.4923 6.58844 21.0754C6.58844 19.6586 7.7414 18.5086 9.16201 18.5086C10.5826 18.5086 11.7356 19.6586 11.7356 21.0754C11.7356 22.4923 10.5826 23.6422 9.16201 23.6422Z" fill="#5C5963"/>
<path d="M9.16243 23.6355C10.5838 23.6355 11.736 22.4863 11.736 21.0687C11.736 19.6511 10.5838 18.502 9.16243 18.502C7.74109 18.502 6.58887 19.6511 6.58887 21.0687C6.58887 22.4863 7.74109 23.6355 9.16243 23.6355Z" fill="#5C5963"/>
<path d="M9.92235 21.8302C10.3431 21.4105 10.3431 20.7301 9.92235 20.3104C9.50158 19.8908 8.81937 19.8908 8.3986 20.3104C7.97782 20.7301 7.97782 21.4105 8.3986 21.8302C8.81937 22.2498 9.50158 22.2498 9.92235 21.8302Z" fill="white"/>
<path d="M55.486 15.1816C52.2948 15.1816 49.6869 17.721 49.584 20.8765H50.5791C50.682 18.2618 52.8438 16.1604 55.486 16.1604C58.1351 16.1604 60.29 18.2549 60.393 20.8765H61.3881C61.2851 17.721 58.6773 15.1816 55.486 15.1816Z" fill="#413F47"/>
<path d="M22.0573 15.1816C18.8661 15.1816 16.2582 17.721 16.1553 20.8765H17.1504C17.2533 18.2618 19.4151 16.1604 22.0573 16.1604C24.6995 16.1604 26.8613 18.2549 26.9643 20.8765H27.9594C27.8564 17.721 25.2554 15.1816 22.0573 15.1816Z" fill="#413F47"/>
<path d="M9.16181 15.1816C5.97059 15.1816 3.36271 17.721 3.25977 20.8765H4.25488C4.35782 18.2549 6.51275 16.1604 9.16181 16.1604C11.8109 16.1604 13.9658 18.2549 14.0687 20.8765H15.0639C14.9609 17.721 12.353 15.1816 9.16181 15.1816Z" fill="#413F47"/>
<path opacity="0.5" d="M56.2959 2.75781V7.43276L62.1225 2.75781H56.2959Z" fill="#94ADD6"/>
<path d="M58.8837 11.0679C58.8837 10.8489 58.6915 10.6777 58.4513 10.6777H56.8591C56.6189 10.6777 56.4268 10.8557 56.4268 11.0679C56.4268 11.2869 56.6189 11.458 56.8591 11.458H58.4513C58.6915 11.458 58.8837 11.2801 58.8837 11.0679Z" fill="#C1D9FF"/>
<path d="M54.4497 3.02569C54.4497 2.89564 54.3056 2.79297 54.1271 2.79297H52.6585C52.4801 2.79297 52.3359 2.89564 52.3359 3.02569V7.12568C52.3359 7.25573 52.4801 7.3584 52.6585 7.3584H54.1271C54.3056 7.3584 54.4497 7.25573 54.4497 7.12568V3.02569Z" fill="#C1D9FF"/>
<path d="M1.07747 18.3301H0V21.3144H1.07747V18.3301Z" fill="#5C5963"/>
</svg>
